<svg width="20" height="20" viewBox="0 0 20 20" fill="none" xmlns="http://www.w3.org/2000/svg">
<path fill-rule="evenodd" clip-rule="evenodd" d="M2.54169 10.0001C2.54169 5.88093 5.8809 2.54172 10 2.54172C14.1191 2.54172 17.4584 5.88093 17.4584 10.0001C17.4584 14.1192 14.1191 17.4584 10 17.4584C5.8809 17.4584 2.54169 14.1192 2.54169 10.0001ZM10 0.791718C4.9144 0.791718 0.791687 4.91443 0.791687 10.0001C0.791687 15.0857 4.9144 19.2084 10 19.2084C15.0856 19.2084 19.2084 15.0857 19.2084 10.0001C19.2084 4.91443 15.0856 0.791718 10 0.791718ZM8.11874 6.88133C7.77703 6.53962 7.22301 6.53962 6.8813 6.88133C6.53959 7.22304 6.53959 7.77706 6.8813 8.11877L8.76258 10.0001L6.8813 11.8813C6.53959 12.223 6.53959 12.7771 6.8813 13.1188C7.22301 13.4605 7.77703 13.4605 8.11874 13.1188L10 11.2375L11.8813 13.1188C12.223 13.4605 12.777 13.4605 13.1187 13.1188C13.4604 12.7771 13.4604 12.223 13.1187 11.8813L11.2375 10.0001L13.1187 8.11877C13.4604 7.77706 13.4604 7.22304 13.1187 6.88133C12.777 6.53962 12.223 6.53962 11.8813 6.88133L10 8.76261L8.11874 6.88133Z" fill="#FF3A30"/>
</svg>
