<svg width="20" height="20" viewBox="0 0 20 20" fill="none" xmlns="http://www.w3.org/2000/svg">
<path fill-rule="evenodd" clip-rule="evenodd" d="M3.375 9.16667C3.375 5.96802 5.96802 3.375 9.16667 3.375C12.3653 3.375 14.9583 5.96802 14.9583 9.16667C14.9583 10.7259 14.3421 12.1413 13.34 13.1825C13.3109 13.205 13.2829 13.2296 13.2563 13.2563C13.2296 13.2829 13.205 13.3109 13.1825 13.34C12.1413 14.3421 10.7259 14.9583 9.16667 14.9583C5.96802 14.9583 3.375 12.3653 3.375 9.16667ZM16.7083 9.16667C16.7083 10.934 16.1004 12.5593 15.0824 13.8449L18.1187 16.8813C18.4604 17.223 18.4604 17.777 18.1187 18.1187C17.777 18.4604 17.223 18.4604 16.8813 18.1187L13.8449 15.0824C12.5593 16.1004 10.934 16.7083 9.16667 16.7083C5.00152 16.7083 1.625 13.3318 1.625 9.16667C1.625 5.00152 5.00152 1.625 9.16667 1.625C13.3318 1.625 16.7083 5.00152 16.7083 9.16667Z" fill="#272937" fill-opacity="0.35"/>
</svg>
