<svg width="20" height="20" viewBox="0 0 20 20" fill="none" xmlns="http://www.w3.org/2000/svg">
<path fill-rule="evenodd" clip-rule="evenodd" d="M8.35633 2.72031C9.92512 2.36586 11.5665 2.52802 13.0355 3.18261C13.477 3.3793 13.9942 3.1809 14.1909 2.73949C14.3876 2.29808 14.1892 1.7808 13.7478 1.58411C11.934 0.775932 9.90754 0.575718 7.97066 1.01333C6.03377 1.45094 4.29024 2.50294 3.00008 4.01242C1.70993 5.5219 0.942282 7.40798 0.811629 9.38939C0.680976 11.3708 1.19432 13.3413 2.27509 15.0072C3.35587 16.673 4.94617 17.9448 6.80883 18.633C8.67148 19.3211 10.7067 19.3887 12.6109 18.8257C14.5151 18.2627 16.1863 17.0992 17.3753 15.5088C18.5642 13.9184 19.2072 11.9857 19.2083 10V9.23336C19.2083 8.75011 18.8166 8.35836 18.3333 8.35836C17.8501 8.35836 17.4583 8.75011 17.4583 9.23336V10C17.4573 11.6082 16.9365 13.1729 15.9736 14.461C15.0106 15.7491 13.657 16.6915 12.1147 17.1475C10.5724 17.6035 8.92396 17.5488 7.4153 16.9914C5.90663 16.434 4.61856 15.4039 3.74318 14.0547C2.8678 12.7054 2.45201 11.1094 2.55784 9.50453C2.66366 7.89968 3.28542 6.37204 4.33039 5.14943C5.37535 3.92682 6.78754 3.07475 8.35633 2.72031ZM18.9524 3.95177C19.2939 3.60989 19.2936 3.05587 18.9517 2.71434C18.6099 2.3728 18.0559 2.37308 17.7143 2.71495L14.6937 5.73857L9.9997 10.4373L8.11873 8.55631C7.77702 8.2146 7.223 8.2146 6.88129 8.55631C6.53958 8.89802 6.53958 9.45204 6.88129 9.79375L9.38129 12.2937C9.54544 12.4579 9.76809 12.5501 10.0002 12.55C10.2324 12.55 10.455 12.4577 10.619 12.2934L15.6676 7.23979L18.9524 3.95177Z" fill="#48B527"/>
</svg>
