<svg width="20" height="20" viewBox="0 0 20 20" fill="none" xmlns="http://www.w3.org/2000/svg">
<path fill-rule="evenodd" clip-rule="evenodd" d="M2.54167 10C2.54167 5.8809 5.88088 2.54169 10 2.54169C14.1191 2.54169 17.4583 5.8809 17.4583 10C17.4583 14.1191 14.1191 17.4584 10 17.4584C5.88088 17.4584 2.54167 14.1191 2.54167 10ZM10 0.791687C4.91438 0.791687 0.791672 4.9144 0.791672 10C0.791672 15.0856 4.91438 19.2084 10 19.2084C15.0856 19.2084 19.2083 15.0856 19.2083 10C19.2083 4.9144 15.0856 0.791687 10 0.791687ZM10.875 6.66669C10.875 6.18344 10.4833 5.79169 10 5.79169C9.51676 5.79169 9.12501 6.18344 9.12501 6.66669V10C9.12501 10.4833 9.51676 10.875 10 10.875C10.4833 10.875 10.875 10.4833 10.875 10V6.66669ZM10 12.4584C9.51676 12.4584 9.12501 12.8501 9.12501 13.3334C9.12501 13.8166 9.51676 14.2084 10 14.2084H10.0083C10.4916 14.2084 10.8833 13.8166 10.8833 13.3334C10.8833 12.8501 10.4916 12.4584 10.0083 12.4584H10Z" fill="#FFB649"/>
</svg>
