<svg width="46" height="46" viewBox="0 0 46 46" fill="none" xmlns="http://www.w3.org/2000/svg">
<path d="M26.6221 32.8994C26.5716 33.9249 26.1286 34.8918 25.3849 35.5997C24.6412 36.3077 23.6537 36.7025 22.627 36.7025C21.6002 36.7025 20.6127 36.3077 19.869 35.5997C19.1253 34.8918 18.6823 33.9249 18.6318 32.8994L18.6318 13.1004C18.6823 12.0748 19.1253 11.108 19.869 10.4C20.6127 9.69208 21.6002 9.29723 22.627 9.29723C23.6537 9.29723 24.6412 9.69208 25.3849 10.4C26.1286 11.108 26.5716 12.0748 26.6221 13.1004L26.6221 32.8994Z" stroke="#A6A6A6" stroke-width="2" stroke-linecap="round" stroke-linejoin="round"/>
<path d="M12.7275 26.995C11.7019 26.9445 10.7351 26.5015 10.0271 25.7578C9.31916 25.0141 8.92431 24.0267 8.92431 22.9999C8.92431 21.9731 9.31916 20.9856 10.0271 20.2419C10.7351 19.4982 11.7019 19.0553 12.7275 19.0047H32.5264C33.552 19.0553 34.5188 19.4982 35.2268 20.2419C35.9347 20.9856 36.3296 21.9731 36.3296 22.9999C36.3296 24.0267 35.9347 25.0141 35.2268 25.7578C34.5188 26.5015 33.552 26.9445 32.5264 26.995H12.7275Z" stroke="#A6A6A6" stroke-width="2" stroke-linecap="round" stroke-linejoin="round"/>
<path opacity="0.5" d="M22.9805 22.6464C22.7852 22.4511 22.4687 22.4511 22.2734 22.6464C22.0781 22.8416 22.0781 23.1582 22.2734 23.3535C22.4687 23.5487 22.7852 23.5487 22.9805 23.3535C23.1758 23.1582 23.1758 22.8416 22.9805 22.6464Z" stroke="white" stroke-opacity="0.65" stroke-width="2" stroke-linecap="round" stroke-linejoin="round"/>
<path d="M23.6876 21.9391C23.1018 21.3533 22.1521 21.3533 21.5663 21.9391C20.9805 22.5249 20.9805 23.4746 21.5663 24.0604C22.1521 24.6462 23.1018 24.6462 23.6876 24.0604C24.2734 23.4746 24.2734 22.5249 23.6876 21.9391Z" fill="#A6A6A6"/>
</svg>
