<svg width="32" height="32" viewBox="0 0 32 32" fill="none" xmlns="http://www.w3.org/2000/svg">
<path opacity="0.2" d="M16 22.5C18.7614 22.5 21 20.2614 21 17.5C21 14.7386 18.7614 12.5 16 12.5C13.2386 12.5 11 14.7386 11 17.5C11 20.2614 13.2386 22.5 16 22.5Z" fill="#A6A6A6"/>
<path opacity="0.2" d="M7.5 14.5C9.70914 14.5 11.5 12.7091 11.5 10.5C11.5 8.29086 9.70914 6.5 7.5 6.5C5.29086 6.5 3.5 8.29086 3.5 10.5C3.5 12.7091 5.29086 14.5 7.5 14.5Z" fill="#A6A6A6"/>
<path opacity="0.2" d="M24.5 14.5C26.7091 14.5 28.5 12.7091 28.5 10.5C28.5 8.29086 26.7091 6.5 24.5 6.5C22.2909 6.5 20.5 8.29086 20.5 10.5C20.5 12.7091 22.2909 14.5 24.5 14.5Z" fill="#A6A6A6"/>
<path d="M16 22.5C18.7614 22.5 21 20.2614 21 17.5C21 14.7386 18.7614 12.5 16 12.5C13.2386 12.5 11 14.7386 11 17.5C11 20.2614 13.2386 22.5 16 22.5Z" stroke="#A6A6A6" stroke-width="2" stroke-linecap="round" stroke-linejoin="round"/>
<path d="M24.5 14.5C25.6647 14.4981 26.8137 14.7683 27.8554 15.2892C28.8972 15.81 29.8028 16.5671 30.5 17.5" stroke="#A6A6A6" stroke-width="2" stroke-linecap="round" stroke-linejoin="round"/>
<path d="M1.5 17.5C2.19725 16.5671 3.10285 15.81 4.14457 15.2892C5.1863 14.7683 6.33532 14.4981 7.5 14.5" stroke="#A6A6A6" stroke-width="2" stroke-linecap="round" stroke-linejoin="round"/>
<path d="M8.80078 26.9997C9.45931 25.6511 10.4834 24.5145 11.7563 23.7195C13.0293 22.9245 14.5 22.5029 16.0008 22.5029C17.5016 22.5029 18.9723 22.9245 20.2452 23.7195C21.5182 24.5145 22.5423 25.6511 23.2008 26.9997" stroke="#A6A6A6" stroke-width="2" stroke-linecap="round" stroke-linejoin="round"/>
<path d="M7.50015 14.5C6.74096 14.5008 5.99722 14.2855 5.35584 13.8792C4.71446 13.473 4.20193 12.8927 3.87814 12.206C3.55434 11.5193 3.43266 10.7546 3.5273 10.0014C3.62194 9.24809 3.929 8.5373 4.4126 7.95206C4.89619 7.36681 5.53636 6.93127 6.25829 6.69634C6.98022 6.4614 7.75411 6.43677 8.48952 6.62532C9.22493 6.81388 9.8915 7.20782 10.4113 7.76113C10.9312 8.31444 11.2828 9.00427 11.4252 9.75" stroke="#A6A6A6" stroke-width="2" stroke-linecap="round" stroke-linejoin="round"/>
<path d="M20.5742 9.75C20.7166 9.00427 21.0682 8.31444 21.588 7.76113C22.1079 7.20782 22.7744 6.81388 23.5099 6.62532C24.2453 6.43677 25.0191 6.4614 25.7411 6.69634C26.463 6.93127 27.1032 7.36681 27.5868 7.95206C28.0704 8.5373 28.3774 9.24809 28.4721 10.0014C28.5667 10.7546 28.445 11.5193 28.1212 12.206C27.7974 12.8927 27.2849 13.473 26.6435 13.8792C26.0022 14.2855 25.2584 14.5008 24.4992 14.5" stroke="#A6A6A6" stroke-width="2" stroke-linecap="round" stroke-linejoin="round"/>
</svg>
